<svg id="visual" viewBox="0 0 900 600" width="900" height="600" xmlns="http://www.w3.org/2000/svg" xmlns:xlink="http://www.w3.org/1999/xlink" version="1.1"><rect x="0" y="0" width="900" height="600" fill="#f6f6f6"></rect><defs><linearGradient id="grad1_0" x1="33.3%" y1="0%" x2="100%" y2="100%"><stop offset="20%" stop-color="#acd4f6" stop-opacity="1"></stop><stop offset="80%" stop-color="#acd4f6" stop-opacity="1"></stop></linearGradient></defs><defs><linearGradient id="grad1_1" x1="33.3%" y1="0%" x2="100%" y2="100%"><stop offset="20%" stop-color="#acd4f6" stop-opacity="1"></stop><stop offset="80%" stop-color="#bcdbf6" stop-opacity="1"></stop></linearGradient></defs><defs><linearGradient id="grad1_2" x1="33.3%" y1="0%" x2="100%" y2="100%"><stop offset="20%" stop-color="#cbe1f6" stop-opacity="1"></stop><stop offset="80%" stop-color="#bcdbf6" stop-opacity="1"></stop></linearGradient></defs><defs><linearGradient id="grad1_3" x1="33.3%" y1="0%" x2="100%" y2="100%"><stop offset="20%" stop-color="#cbe1f6" stop-opacity="1"></stop><stop offset="80%" stop-color="#dae8f6" stop-opacity="1"></stop></linearGradient></defs><defs><linearGradient id="grad1_4" x1="33.3%" y1="0%" x2="100%" y2="100%"><stop offset="20%" stop-color="#e8eff6" stop-opacity="1"></stop><stop offset="80%" stop-color="#dae8f6" stop-opacity="1"></stop></linearGradient></defs><defs><linearGradient id="grad1_5" x1="33.3%" y1="0%" x2="100%" y2="100%"><stop offset="20%" stop-color="#e8eff6" stop-opacity="1"></stop><stop offset="80%" stop-color="#f6f6f6" stop-opacity="1"></stop></linearGradient></defs><defs><linearGradient id="grad2_0" x1="0%" y1="0%" x2="66.7%" y2="100%"><stop offset="20%" stop-color="#acd4f6" stop-opacity="1"></stop><stop offset="80%" stop-color="#acd4f6" stop-opacity="1"></stop></linearGradient></defs><defs><linearGradient id="grad2_1" x1="0%" y1="0%" x2="66.7%" y2="100%"><stop offset="20%" stop-color="#bcdbf6" stop-opacity="1"></stop><stop offset="80%" stop-color="#acd4f6" stop-opacity="1"></stop></linearGradient></defs><defs><linearGradient id="grad2_2" x1="0%" y1="0%" x2="66.7%" y2="100%"><stop offset="20%" stop-color="#bcdbf6" stop-opacity="1"></stop><stop offset="80%" stop-color="#cbe1f6" stop-opacity="1"></stop></linearGradient></defs><defs><linearGradient id="grad2_3" x1="0%" y1="0%" x2="66.7%" y2="100%"><stop offset="20%" stop-color="#dae8f6" stop-opacity="1"></stop><stop offset="80%" stop-color="#cbe1f6" stop-opacity="1"></stop></linearGradient></defs><defs><linearGradient id="grad2_4" x1="0%" y1="0%" x2="66.7%" y2="100%"><stop offset="20%" stop-color="#dae8f6" stop-opacity="1"></stop><stop offset="80%" stop-color="#e8eff6" stop-opacity="1"></stop></linearGradient></defs><defs><linearGradient id="grad2_5" x1="0%" y1="0%" x2="66.7%" y2="100%"><stop offset="20%" stop-color="#f6f6f6" stop-opacity="1"></stop><stop offset="80%" stop-color="#e8eff6" stop-opacity="1"></stop></linearGradient></defs><g transform="translate(900, 0)"><path d="M0 378.6C-71.4 371.7 -142.8 364.7 -189.3 327.9C-235.8 291 -257.5 224.1 -284.9 164.5C-312.3 104.9 -345.5 52.4 -378.6 0L0 0Z" fill="#eff3f6"></path><path d="M0 315.5C-59.5 309.7 -119 304 -157.7 273.2C-196.5 242.5 -214.6 186.8 -237.4 137.1C-260.3 87.4 -287.9 43.7 -315.5 0L0 0Z" fill="#e1ecf6"></path><path d="M0 252.4C-47.6 247.8 -95.2 243.2 -126.2 218.6C-157.2 194 -171.7 149.4 -189.9 109.7C-208.2 69.9 -230.3 35 -252.4 0L0 0Z" fill="#d2e5f6"></path><path d="M0 189.3C-35.7 185.8 -71.4 182.4 -94.6 163.9C-117.9 145.5 -128.8 112.1 -142.5 82.3C-156.2 52.4 -172.7 26.2 -189.3 0L0 0Z" fill="#c3def6"></path><path d="M0 126.2C-23.8 123.9 -47.6 121.6 -63.1 109.3C-78.6 97 -85.8 74.7 -95 54.8C-104.1 35 -115.2 17.5 -126.2 0L0 0Z" fill="#b4d7f6"></path><path d="M0 63.1C-11.9 61.9 -23.8 60.8 -31.5 54.6C-39.3 48.5 -42.9 37.4 -47.5 27.4C-52.1 17.5 -57.6 8.7 -63.1 0L0 0Z" fill="#acd4f6"></path></g><g transform="translate(0, 600)"><path d="M0 -378.6C67.5 -369.4 134.9 -360.2 189.3 -327.9C243.7 -295.5 285 -240 314.4 -181.5C343.7 -123 361.2 -61.5 378.6 0L0 0Z" fill="#eff3f6"></path><path d="M0 -315.5C56.2 -307.8 112.4 -300.2 157.7 -273.2C203.1 -246.3 237.5 -200 262 -151.3C286.4 -102.5 301 -51.2 315.5 0L0 0Z" fill="#e1ecf6"></path><path d="M0 -252.4C45 -246.3 89.9 -240.1 126.2 -218.6C162.5 -197 190 -160 209.6 -121C229.2 -82 240.8 -41 252.4 0L0 0Z" fill="#d2e5f6"></path><path d="M0 -189.3C33.7 -184.7 67.5 -180.1 94.6 -163.9C121.8 -147.8 142.5 -120 157.2 -90.8C171.9 -61.5 180.6 -30.7 189.3 0L0 0Z" fill="#c3def6"></path><path d="M0 -126.2C22.5 -123.1 45 -120.1 63.1 -109.3C81.2 -98.5 95 -80 104.8 -60.5C114.6 -41 120.4 -20.5 126.2 0L0 0Z" fill="#b4d7f6"></path><path d="M0 -63.1C11.2 -61.6 22.5 -60 31.5 -54.6C40.6 -49.3 47.5 -40 52.4 -30.3C57.3 -20.5 60.2 -10.2 63.1 0L0 0Z" fill="#acd4f6"></path></g></svg>