<svg id="visual" viewBox="0 0 900 600" width="900" height="600" xmlns="http://www.w3.org/2000/svg" xmlns:xlink="http://www.w3.org/1999/xlink" version="1.1"><path d="M0 310L180 300L360 359L540 300L720 424L900 450L900 0L720 0L540 0L360 0L180 0L0 0Z" fill="#c1d9fd"></path><path d="M0 306L180 346L360 295L540 303L720 313L900 344L900 0L720 0L540 0L360 0L180 0L0 0Z" fill="#a5c5f7"></path><path d="M0 252L180 229L360 231L540 236L720 277L900 236L900 0L720 0L540 0L360 0L180 0L0 0Z" fill="#8ab1f1"></path><path d="M0 152L180 183L360 152L540 144L720 211L900 180L900 0L720 0L540 0L360 0L180 0L0 0Z" fill="#6e9deb"></path><path d="M0 154L180 102L360 111L540 169L720 154L900 163L900 0L720 0L540 0L360 0L180 0L0 0Z" fill="#5289e4"></path><path d="M0 66L180 45L360 46L540 85L720 58L900 60L900 0L720 0L540 0L360 0L180 0L0 0Z" fill="#3075dc"></path></svg>